<?xml version="1.0" encoding="UTF-8" standalone="no"?>
<!-- Created with Inkscape (http://www.inkscape.org/) -->

<svg
   xmlns:dc="http://purl.org/dc/elements/1.1/"
   xmlns:cc="http://creativecommons.org/ns#"
   xmlns:rdf="http://www.w3.org/1999/02/22-rdf-syntax-ns#"
   xmlns:svg="http://www.w3.org/2000/svg"
   xmlns="http://www.w3.org/2000/svg"
   xmlns:sodipodi="http://sodipodi.sourceforge.net/DTD/sodipodi-0.dtd"
   xmlns:inkscape="http://www.inkscape.org/namespaces/inkscape"
   width="100"
   height="100"
   id="svg2"
   version="1.1"
   inkscape:version="0.91pre2 r13532"
   viewBox="0 0 100 100"
   sodipodi:docname="RusDead.svg"
   inkscape:export-filename="C:\Users\zach\Desktop\RusDed.png"
   inkscape:export-xdpi="90"
   inkscape:export-ydpi="90">
  <defs
     id="defs4" />
  <sodipodi:namedview
     id="base"
     pagecolor="#ffffff"
     bordercolor="#666666"
     borderopacity="1.0"
     inkscape:pageopacity="0.0"
     inkscape:pageshadow="2"
     inkscape:zoom="5.7826087"
     inkscape:cx="67.836269"
     inkscape:cy="40.845461"
     inkscape:document-units="px"
     inkscape:current-layer="layer1"
     showgrid="false"
     inkscape:window-width="1366"
     inkscape:window-height="745"
     inkscape:window-x="-8"
     inkscape:window-y="-8"
     inkscape:window-maximized="1" />
  <metadata
     id="metadata7">
    <rdf:RDF>
      <cc:Work
         rdf:about="">
        <dc:format>image/svg+xml</dc:format>
        <dc:type
           rdf:resource="http://purl.org/dc/dcmitype/StillImage" />
        <dc:title />
      </cc:Work>
    </rdf:RDF>
  </metadata>
  <g
     inkscape:label="Layer 1"
     inkscape:groupmode="layer"
     id="layer1"
     transform="translate(0,-952.3622)">
    <path
       style="opacity:1;fill:#be3913;fill-opacity:1;fill-rule:evenodd;stroke:#000000;stroke-width:2;stroke-linecap:butt;stroke-linejoin:miter;stroke-miterlimit:4;stroke-dasharray:none;stroke-opacity:1"
       d="m 79.237043,1030.3766 c -7.306358,8.0735 -17.242423,17.527 -28.111053,20.5469 l -3.160064,-6.5309 c 8.375739,-3.8051 13.299709,-6.8148 19.617873,-14.7161 z"
       id="path4180"
       inkscape:connector-curvature="0"
       sodipodi:nodetypes="ccccc" />
    <path
       style="opacity:1;fill:#be3913;fill-opacity:1;fill-rule:evenodd;stroke:#000000;stroke-width:2;stroke-linecap:butt;stroke-linejoin:miter;stroke-miterlimit:4;stroke-dasharray:none;stroke-opacity:1"
       d="m 69.909692,1010.609 c -11.297967,3.4499 -14.61088,2.8444 -26.131221,1.5945 l 1.360512,28.7571 c 11.542433,-0.065 23.031157,-1.2633 34.165203,-9.9594 z"
       id="path4140"
       inkscape:connector-curvature="0"
       sodipodi:nodetypes="ccccc" />
    <path
       style="opacity:1;fill:#be3913;fill-opacity:1;fill-rule:evenodd;stroke:#000000;stroke-width:2;stroke-linecap:butt;stroke-linejoin:miter;stroke-miterlimit:4;stroke-dasharray:none;stroke-opacity:1"
       d="m 44.896782,1030.0347 c -9.750968,1.721 -19.315201,3.6117 -29.244542,1.5624 l 0.530462,14.9917 c 12.416775,-0.6919 24.733006,-1.0269 38.334312,-5.9254"
       id="path4144"
       inkscape:connector-curvature="0"
       sodipodi:nodetypes="cccc" />
    <path
       style="opacity:1;fill:#be3913;fill-opacity:1;fill-rule:evenodd;stroke:#000000;stroke-width:2;stroke-linecap:butt;stroke-linejoin:miter;stroke-miterlimit:4;stroke-dasharray:none;stroke-opacity:1"
       d="m 43.442893,1011.7647 c -5.03071,8.6519 -15.596616,20.9146 -23.229165,28.566 l 16.731441,6.2426 c 8.245721,-7.2243 12.508653,-15.7887 17.216485,-24.3734"
       id="path4142"
       inkscape:connector-curvature="0"
       sodipodi:nodetypes="cccc" />
    <path
       style="opacity:1;fill:#5f2a00;fill-opacity:1;stroke:#000000;stroke-width:2;stroke-linecap:butt;stroke-miterlimit:4;stroke-dasharray:none;stroke-opacity:1"
       d="m 21.984902,1040.7721 a 9.5348434,5.8928571 87.291338 0 0 -6.336524,-9.2461 9.5348434,5.8928571 87.291338 0 0 -0.532294,0.074 l 0.896876,18.9573 a 9.5348434,5.8928571 87.291338 0 0 0.536633,0.018 9.5348434,5.8928571 87.291338 0 0 5.435309,-9.8029 z"
       id="path4176"
       inkscape:connector-curvature="0" />
    <path
       style="opacity:1;fill:#5f2a00;fill-opacity:1;stroke:#000000;stroke-width:2;stroke-linecap:butt;stroke-miterlimit:4;stroke-dasharray:none;stroke-opacity:1"
       d="m 34.162086,1039.3808 a 10.714286,5.3571429 21.033676 0 0 -11.922036,1.1553 10.714286,5.3571429 21.033676 0 0 -0.179972,0.8872 l 19.710156,7.5793 a 10.714286,5.3571429 21.033676 0 0 0.46985,-0.7757 10.714286,5.3571429 21.033676 0 0 -8.077998,-8.8461 z"
       id="path4150"
       inkscape:connector-curvature="0" />
    <path
       style="opacity:1;fill:#be3913;fill-opacity:1;fill-rule:evenodd;stroke:#000000;stroke-width:2;stroke-linecap:butt;stroke-linejoin:miter;stroke-miterlimit:4;stroke-dasharray:none;stroke-opacity:1"
       d="m 72.947972,1011.3325 c -11.919395,4.3777 -23.794637,12.8628 -31.409091,22.0449 l 7.366511,5.0971 c 4.755248,-4.0856 9.90711,-8.7397 18.313686,-10.6282"
       id="path4178"
       inkscape:connector-curvature="0"
       sodipodi:nodetypes="cccc" />
    <g
       id="g4813"
       transform="matrix(0.92587665,0.37782593,-0.37782593,0.92587665,396.80506,106.405)">
      <path
         sodipodi:nodetypes="sssssssss"
         inkscape:connector-curvature="0"
         id="rect4137"
         d="m 33.830404,960.32642 c -1.497561,0 -2.404417,1.64534 -2.703178,3.60673 -1.278591,8.39406 -0.379604,16.7881 0,25.18214 0.09022,1.99513 1.205617,3.60679 2.703178,3.60679 l 32.989632,0 c 1.49756,0 2.490629,-1.62698 2.703178,-3.60679 0.901187,-8.39404 1.426833,-16.78808 0,-25.18214 -0.331909,-1.95262 -1.205618,-3.60673 -2.703178,-3.60673 z"
         style="opacity:1;fill:#e9d8b1;fill-opacity:1;stroke:#000000;stroke-width:2;stroke-linecap:butt;stroke-miterlimit:4;stroke-dasharray:none;stroke-opacity:1" />
      <ellipse
         ry="4.1575751"
         rx="2.0787876"
         cy="973.61285"
         cx="43.043133"
         id="path4182"
         style="opacity:1;fill:#ffffff;fill-opacity:1;stroke:#000000;stroke-width:2;stroke-linecap:butt;stroke-miterlimit:4;stroke-dasharray:none;stroke-opacity:1"
         d="m 45.12192,973.61285 a 2.0787876,4.1575751 0 0 1 -2.078787,4.15758 2.0787876,4.1575751 0 0 1 -2.078788,-4.15758 2.0787876,4.1575751 0 0 1 2.078788,-4.15757 2.0787876,4.1575751 0 0 1 2.078787,4.15757 z" />
      <path
         sodipodi:nodetypes="ccscssc"
         id="path4205"
         style="fill:#000000;fill-opacity:0.32919258;fill-rule:evenodd;stroke:none;stroke-width:1px;stroke-linecap:butt;stroke-linejoin:miter;stroke-opacity:1"
         d="m 31.059532,971.90089 4.402139,0 c 0,0 -0.366845,-6.48092 3.668449,-6.35864 4.035293,0.12228 30.570406,0.12228 30.570406,0.12228 0,0 0,-5.25811 -1.711943,-5.25811 -1.711943,0 -34.483418,-0.85597 -35.217108,0 -0.73369,0.85597 -1.711943,11.49447 -1.711943,11.49447 z"
         inkscape:connector-curvature="0" />
      <ellipse
         ry="4.1575751"
         rx="2.0787876"
         cy="973.4906"
         cx="64.075569"
         id="path4182-7"
         style="opacity:1;fill:#ffffff;fill-opacity:1;stroke:#000000;stroke-width:2;stroke-linecap:butt;stroke-miterlimit:4;stroke-dasharray:none;stroke-opacity:1"
         d="m 66.154357,973.4906 a 2.0787876,4.1575751 0 0 1 -2.078788,4.15758 2.0787876,4.1575751 0 0 1 -2.078787,-4.15758 2.0787876,4.1575751 0 0 1 2.078787,-4.15757 2.0787876,4.1575751 0 0 1 2.078788,4.15757 z" />
      <path
         sodipodi:nodetypes="ccc"
         inkscape:connector-curvature="0"
         id="path4199"
         d="m 53.926196,973.12371 c 0,0 4.290846,5.03119 4.157576,10.14937 l -3.668449,0"
         style="fill:none;fill-rule:evenodd;stroke:#000000;stroke-width:1px;stroke-linecap:butt;stroke-linejoin:miter;stroke-opacity:1" />
      <path
         inkscape:connector-curvature="0"
         id="path4201"
         d="m 48.790368,988.28663 9.904812,0.12228"
         style="fill:none;fill-rule:evenodd;stroke:#000000;stroke-width:1px;stroke-linecap:butt;stroke-linejoin:miter;stroke-opacity:1" />
      <path
         style="opacity:1;fill:none;fill-opacity:1;stroke:#000000;stroke-width:2;stroke-linecap:butt;stroke-miterlimit:4;stroke-dasharray:none;stroke-opacity:1"
         d="m 33.830404,960.32642 c -1.497561,0 -2.404417,1.64534 -2.703178,3.60673 -1.278591,8.39406 -0.379604,16.7881 0,25.18214 0.09022,1.99513 1.205617,3.60679 2.703178,3.60679 l 32.989632,0 c 1.49756,0 2.490629,-1.62698 2.703178,-3.60679 0.901187,-8.39404 1.426833,-16.78808 0,-25.18214 -0.331909,-1.95262 -1.205618,-3.60673 -2.703178,-3.60673 z"
         id="path4207"
         inkscape:connector-curvature="0"
         sodipodi:nodetypes="sssssssss" />
    </g>
    <path
       style="opacity:0.98999999;fill:#e9d8b1;fill-opacity:1;fill-rule:evenodd;stroke:none;stroke-width:1px;stroke-linecap:butt;stroke-linejoin:miter;stroke-opacity:1"
       d="m 75.224179,1026.4457 -1.46738,-6.1141 -4.402138,-2.6902 c 0,0 -0.978253,-3.1793 -3.179322,0.2446 -2.20107,3.4238 -5.135829,7.826 -5.135829,9.2934 0,1.4673 -0.733689,2.6902 1.222817,3.1793 1.956506,0.4891 11.983599,-3.1793 12.961852,-3.913 z"
       id="path4822"
       inkscape:connector-curvature="0" />
    <path
       style="opacity:0.98999999;fill:#e9d8b1;fill-opacity:1;fill-rule:evenodd;stroke:none;stroke-width:1px;stroke-linecap:butt;stroke-linejoin:miter;stroke-opacity:1"
       d="m 83.783893,1024.9783 c 0,0 -3.423886,9.0488 -1.956507,9.7825 1.46738,0.7337 1.222817,3.913 2.93476,4.1576 1.711942,0.2446 3.423885,0.7337 4.402138,0 0.978253,-0.7337 1.711943,-2.6902 1.711943,-3.913 0,-1.2228 3.179322,-3.6685 2.201069,-5.8695 -0.978253,-2.2011 -8.559714,-5.1359 -9.293403,-4.1576 z"
       id="path4824"
       inkscape:connector-curvature="0"
       sodipodi:nodetypes="csssscc" />
  </g>
</svg>
