<?xml version="1.0" encoding="UTF-8" standalone="no"?>
<!-- Created with Inkscape (http://www.inkscape.org/) -->

<svg
   xmlns:dc="http://purl.org/dc/elements/1.1/"
   xmlns:cc="http://creativecommons.org/ns#"
   xmlns:rdf="http://www.w3.org/1999/02/22-rdf-syntax-ns#"
   xmlns:svg="http://www.w3.org/2000/svg"
   xmlns="http://www.w3.org/2000/svg"
   xmlns:sodipodi="http://sodipodi.sourceforge.net/DTD/sodipodi-0.dtd"
   xmlns:inkscape="http://www.inkscape.org/namespaces/inkscape"
   width="100"
   height="100"
   id="svg2"
   version="1.1"
   inkscape:version="0.91pre2 r13532"
   viewBox="0 0 100 100"
   sodipodi:docname="SGT.svg">
  <defs
     id="defs4" />
  <sodipodi:namedview
     id="base"
     pagecolor="#ffffff"
     bordercolor="#666666"
     borderopacity="1.0"
     inkscape:pageopacity="0.0"
     inkscape:pageshadow="2"
     inkscape:zoom="4.0889218"
     inkscape:cx="25.635708"
     inkscape:cy="53.61937"
     inkscape:document-units="px"
     inkscape:current-layer="layer1"
     showgrid="false"
     inkscape:window-width="1366"
     inkscape:window-height="745"
     inkscape:window-x="-8"
     inkscape:window-y="-8"
     inkscape:window-maximized="1" />
  <metadata
     id="metadata7">
    <rdf:RDF>
      <cc:Work
         rdf:about="">
        <dc:format>image/svg+xml</dc:format>
        <dc:type
           rdf:resource="http://purl.org/dc/dcmitype/StillImage" />
        <dc:title></dc:title>
      </cc:Work>
    </rdf:RDF>
  </metadata>
  <g
     inkscape:label="Layer 1"
     inkscape:groupmode="layer"
     id="layer1"
     transform="translate(0,-952.3622)">
    <path
       style="opacity:1;fill:#30562c;fill-opacity:1;fill-rule:evenodd;stroke:#000000;stroke-width:2;stroke-linecap:butt;stroke-linejoin:miter;stroke-miterlimit:4;stroke-dasharray:none;stroke-opacity:1"
       d="m 58.214286,988.25506 c 7.71925,7.67973 16.69258,18.05144 19.195488,29.05064 l -6.672931,2.8479 c -3.405018,-8.5462 -6.178666,-13.6069 -13.772557,-20.2914 z"
       id="path4180"
       inkscape:connector-curvature="0"
       sodipodi:nodetypes="ccccc" />
    <path
       style="fill:#30562c;fill-rule:evenodd;stroke:#000000;stroke-width:2;stroke-linecap:butt;stroke-linejoin:miter;stroke-opacity:1;fill-opacity:1;opacity:1;stroke-miterlimit:4;stroke-dasharray:none"
       d="m 37.375644,988.47005 c 2.912193,11.44838 2.803129,22.89675 1.010153,34.34515 l 28.789347,0 c 0.480725,-11.5326 -0.173585,-23.06513 -8.333758,-34.59769 z"
       id="path4140"
       inkscape:connector-curvature="0"
       sodipodi:nodetypes="ccccc" />
    <path
       style="opacity:1;fill:#30562c;fill-opacity:1;fill-rule:evenodd;stroke:#000000;stroke-width:2;stroke-linecap:butt;stroke-linejoin:miter;stroke-miterlimit:4;stroke-dasharray:none;stroke-opacity:1"
       d="m 38.537594,986.68738 c -7.956027,9.89633 -13.75659,23.28932 -15.546992,35.08272 l 8.939849,0.5695 c 1.968157,-5.9524 3.982983,-12.5964 10.212406,-18.5488"
       id="path4178"
       inkscape:connector-curvature="0"
       sodipodi:nodetypes="cccc" />
    <path
       style="opacity:1;fill:#30562c;fill-opacity:1;fill-rule:evenodd;stroke:#000000;stroke-width:2;stroke-linecap:butt;stroke-linejoin:miter;stroke-miterlimit:4;stroke-dasharray:none;stroke-opacity:1"
       d="m 56.25,1022.5408 c 1.258193,9.8214 2.694872,19.4643 0.178572,29.2857 l 15,0.1786 c -0.104344,-12.4356 0.14311,-24.7539 -4.107143,-38.5715"
       id="path4144"
       inkscape:connector-curvature="0"
       sodipodi:nodetypes="cccc" />
    <path
       style="opacity:1;fill:#30562c;fill-opacity:1;fill-rule:evenodd;stroke:#000000;stroke-width:2;stroke-linecap:butt;stroke-linejoin:miter;stroke-miterlimit:4;stroke-dasharray:none;stroke-opacity:1"
       d="m 39.285715,1017.0051 c -1.590206,9.881 -7.05076,25.119 -11.428572,35 l 17.857143,-0.1786 c 5.103413,-9.7024 6.008381,-19.2262 7.321429,-28.9286"
       id="path4142"
       inkscape:connector-curvature="0"
       sodipodi:nodetypes="cccc" />
    <path
       style="opacity:1;fill:#5f3100;fill-opacity:1;stroke:#000000;stroke-width:2;stroke-linecap:butt;stroke-miterlimit:4;stroke-dasharray:none;stroke-opacity:1"
       d="m 65.892578,1045.9345 a 9.5348434,5.8928571 0 0 0 -9.535156,5.8925 9.5348434,5.8928571 0 0 0 0.04883,0.5352 l 18.978516,0 a 9.5348434,5.8928571 0 0 0 0.04297,-0.5352 9.5348434,5.8928571 0 0 0 -9.535156,-5.8925 z"
       id="path4176" />
    <path
       style="opacity:1;fill:#5f3100;fill-opacity:1;stroke:#000000;stroke-width:2;stroke-linecap:butt;stroke-miterlimit:4;stroke-dasharray:none;stroke-opacity:1"
       d="m 40.535156,1046.1122 a 10.714286,5.3571429 0 0 0 -10.71289,5.3574 10.714286,5.3571429 0 0 0 0.15039,0.8926 l 21.117188,0 a 10.714286,5.3571429 0 0 0 0.160156,-0.8926 10.714286,5.3571429 0 0 0 -10.714844,-5.3574 z"
       id="path4150" />
    <g
       id="g4237"
       transform="matrix(0.59689681,0.42062439,-0.42062439,0.59689681,470.46208,409.88365)">
      <rect
         ry="2.3345866"
         y="981.80579"
         x="11.413534"
         height="18.676691"
         width="12.796992"
         id="rect4231"
         style="opacity:1;fill:#5d8f3f;fill-opacity:1;stroke:#000000;stroke-width:2;stroke-linecap:butt;stroke-miterlimit:4;stroke-dasharray:none;stroke-opacity:1" />
      <rect
         style="opacity:1;fill:#5d8f3f;fill-opacity:1;stroke:#000000;stroke-width:2;stroke-linecap:butt;stroke-miterlimit:4;stroke-dasharray:none;stroke-opacity:1"
         id="rect4233"
         width="12.796992"
         height="18.676691"
         x="-4.0639095"
         y="981.80579"
         ry="2.3345866" />
      <rect
         ry="2.3345866"
         y="981.7193"
         x="-20.06015"
         height="18.676691"
         width="12.796992"
         id="rect4235"
         style="opacity:1;fill:#5d8f3f;fill-opacity:1;stroke:#000000;stroke-width:2;stroke-linecap:butt;stroke-miterlimit:4;stroke-dasharray:none;stroke-opacity:1" />
    </g>
    <g
       id="g4212">
      <path
         sodipodi:nodetypes="sssssssss"
         inkscape:connector-curvature="0"
         id="rect4137"
         d="m 33.830404,960.32642 c -1.497561,0 -2.404417,1.64534 -2.703178,3.60673 -1.278591,8.39406 -0.379604,16.7881 0,25.18214 0.09022,1.99513 1.205617,3.60679 2.703178,3.60679 l 32.989632,0 c 1.49756,0 2.490629,-1.62698 2.703178,-3.60679 0.901187,-8.39404 1.426833,-16.78808 0,-25.18214 -0.331909,-1.95262 -1.205618,-3.60673 -2.703178,-3.60673 z"
         style="opacity:1;fill:#e9d8b1;fill-opacity:1;stroke:#000000;stroke-width:2;stroke-linecap:butt;stroke-miterlimit:4;stroke-dasharray:none;stroke-opacity:1" />
      <ellipse
         ry="4.1575751"
         rx="2.0787876"
         cy="973.61285"
         cx="43.043133"
         id="path4182"
         style="opacity:1;fill:#ffffff;fill-opacity:1;stroke:#000000;stroke-width:2;stroke-linecap:butt;stroke-miterlimit:4;stroke-dasharray:none;stroke-opacity:1"
         d="m 45.12192,973.61285 a 2.0787876,4.1575751 0 0 1 -2.078787,4.15758 2.0787876,4.1575751 0 0 1 -2.078788,-4.15758 2.0787876,4.1575751 0 0 1 2.078788,-4.15757 2.0787876,4.1575751 0 0 1 2.078787,4.15757 z" />
      <path
         id="path4205"
         style="fill:#000000;fill-rule:evenodd;stroke:none;stroke-width:1px;stroke-linecap:butt;stroke-linejoin:miter;stroke-opacity:1;fill-opacity:0.32919255"
         d="m 31.181814,981.31658 c 0,0 0.122282,8.80427 0.611408,9.53796 0.489127,0.73369 1.46738,2.20107 2.567914,2.20107 1.100535,0 32.526912,0.12228 33.016039,-0.48912 0.489126,-0.61141 2.751061,-3.29218 2.690196,-9.53797 0,0 -38.668331,0.73517 -38.885557,-1.71194 z m -0.122282,-9.41569 4.402139,0 c 0,0 -0.366845,-6.48092 3.668449,-6.35864 4.035293,0.12228 30.570406,0.12228 30.570406,0.12228 0,0 0,-5.25811 -1.711943,-5.25811 -1.711943,0 -34.483418,-0.85597 -35.217108,0 -0.73369,0.85597 -1.711943,11.49447 -1.711943,11.49447 z" />
      <ellipse
         ry="4.1575751"
         rx="2.0787876"
         cy="973.4906"
         cx="64.075569"
         id="path4182-7"
         style="opacity:1;fill:#ffffff;fill-opacity:1;stroke:#000000;stroke-width:2;stroke-linecap:butt;stroke-miterlimit:4;stroke-dasharray:none;stroke-opacity:1"
         d="m 66.154357,973.4906 a 2.0787876,4.1575751 0 0 1 -2.078788,4.15758 2.0787876,4.1575751 0 0 1 -2.078787,-4.15758 2.0787876,4.1575751 0 0 1 2.078787,-4.15757 2.0787876,4.1575751 0 0 1 2.078788,4.15757 z" />
      <path
         sodipodi:nodetypes="ccc"
         inkscape:connector-curvature="0"
         id="path4199"
         d="m 53.926196,973.12371 c 7.241295,0.30868 7.714731,5.03119 7.581461,10.14937 l -7.092334,0"
         style="fill:none;fill-rule:evenodd;stroke:#000000;stroke-width:1px;stroke-linecap:butt;stroke-linejoin:miter;stroke-opacity:1" />
      <path
         inkscape:connector-curvature="0"
         id="path4201"
         d="m 48.790368,988.28663 9.904812,0.12228"
         style="fill:none;fill-rule:evenodd;stroke:#000000;stroke-width:1px;stroke-linecap:butt;stroke-linejoin:miter;stroke-opacity:1" />
      <path
         style="opacity:1;fill:none;fill-opacity:1;stroke:#000000;stroke-width:2;stroke-linecap:butt;stroke-miterlimit:4;stroke-dasharray:none;stroke-opacity:1"
         d="m 33.830404,960.32642 c -1.497561,0 -2.404417,1.64534 -2.703178,3.60673 -1.278591,8.39406 -0.379604,16.7881 0,25.18214 0.09022,1.99513 1.205617,3.60679 2.703178,3.60679 l 32.989632,0 c 1.49756,0 2.490629,-1.62698 2.703178,-3.60679 0.901187,-8.39404 1.426833,-16.78808 0,-25.18214 -0.331909,-1.95262 -1.205618,-3.60673 -2.703178,-3.60673 z"
         id="path4207"
         inkscape:connector-curvature="0"
         sodipodi:nodetypes="sssssssss" />
    </g>
  </g>
</svg>
